<svg width="418" height="90" viewBox="0 0 418 90" fill="none" xmlns="http://www.w3.org/2000/svg">
<path d="M42.6384 0.363281C44.0022 0.194221 45.3866 0.306227 46.7058 0.691406C48.025 1.07663 49.252 1.727 50.3113 2.60352L69.0945 21.6221C70.1904 22.5435 71.0818 23.685 71.7097 24.9727C72.3376 26.2603 72.6882 27.6657 72.74 29.0977V51.2852C72.74 52.6158 72.6918 53.9103 72.5994 55.168C69.7271 51.7729 65.9157 49.1978 61.5652 47.8457V31.7852H52.5828C43.6037 31.7852 39.1288 27.3051 39.1287 20.5537V11.5986H12.1882L12.157 52.0439C12.157 60.24 13.4978 65.3422 17.8015 69.167C21.7471 72.2555 26.4143 74.2125 31.3093 74.8877C32.0874 78.9691 33.9149 82.6775 36.4998 85.7236C27.2217 86.0882 18.1238 83.051 10.9197 77.168C4.31401 71.3111 0.975342 62.63 0.975342 51.3262V8.46094C0.967918 7.39071 1.17673 6.32953 1.59058 5.34277C2.00442 4.35607 2.61431 3.46367 3.38257 2.71973C4.86251 1.29232 5.44929 0.363324 9.95386 0.363281H42.6384Z" fill="#FF6F61"/>
<path d="M54.873 50.9678C54.873 50.3415 54.3653 49.8338 53.739 49.8338C53.1127 49.8338 52.605 50.3415 52.605 50.9678C52.605 56.7356 51.3328 60.6297 48.8618 63.1006C46.3909 65.5715 42.4968 66.8438 36.729 66.8438C36.1027 66.8438 35.595 67.3515 35.595 67.9778C35.595 68.6041 36.1027 69.1118 36.729 69.1118C42.4968 69.1118 46.3909 70.3841 48.8618 72.855C51.3328 75.3259 52.605 79.22 52.605 84.9879C52.605 85.6142 53.1127 86.1219 53.739 86.1219C54.3653 86.1219 54.873 85.6142 54.873 84.9879C54.873 79.22 56.1453 75.3259 58.6162 72.855C61.0871 70.3841 64.9812 69.1118 70.7491 69.1118C71.3754 69.1118 71.8831 68.6041 71.8831 67.9778C71.8831 67.3515 71.3754 66.8438 70.7491 66.8438C64.9812 66.8438 61.0871 65.5715 58.6162 63.1006C56.1453 60.6297 54.873 56.7356 54.873 50.9678Z" fill="#FF6F61"/>
<path d="M49.203 37.3597C49.203 36.7334 48.6953 36.2257 48.069 36.2257C47.4427 36.2257 46.935 36.7334 46.935 37.3597C46.935 38.7963 46.6156 39.5719 46.1804 40.0071C45.7452 40.4423 44.9696 40.7617 43.533 40.7617C42.9067 40.7617 42.399 41.2694 42.399 41.8957C42.399 42.522 42.9067 43.0297 43.533 43.0297C44.9696 43.0297 45.7452 43.3491 46.1804 43.7843C46.6156 44.2196 46.935 44.9952 46.935 46.4317C46.935 47.058 47.4427 47.5657 48.069 47.5657C48.6953 47.5657 49.203 47.058 49.203 46.4317C49.203 44.9952 49.5224 44.2196 49.9576 43.7843C50.3929 43.3491 51.1685 43.0297 52.605 43.0297C53.2313 43.0297 53.739 42.522 53.739 41.8957C53.739 41.2694 53.2313 40.7617 52.605 40.7617C51.1685 40.7617 50.3929 40.4423 49.9576 40.0071C49.5224 39.5719 49.203 38.7963 49.203 37.3597Z" fill="#FF6F61"/>
<path d="M32.2063 43.313C32.2063 42.5894 31.6197 42.0028 30.8961 42.0028C30.1725 42.0028 29.5859 42.5894 29.5859 43.313C29.5859 45.8827 29.0167 47.4339 28.0862 48.3644C27.1557 49.2949 25.6045 49.8641 23.0348 49.8641C22.3112 49.8641 21.7246 50.4507 21.7246 51.1743C21.7246 51.8979 22.3112 52.4845 23.0348 52.4845C25.6045 52.4845 27.1557 53.0537 28.0862 53.9842C29.0167 54.9147 29.5859 56.4659 29.5859 59.0356C29.5859 59.7592 30.1725 60.3458 30.8961 60.3458C31.6197 60.3458 32.2063 59.7592 32.2063 59.0356C32.2063 56.4659 32.7755 54.9147 33.706 53.9842C34.6365 53.0537 36.1877 52.4845 38.7574 52.4845C39.481 52.4845 40.0676 51.8979 40.0676 51.1743C40.0676 50.4507 39.481 49.8641 38.7574 49.8641C36.1877 49.8641 34.6365 49.2949 33.706 48.3644C32.7755 47.4339 32.2063 45.8827 32.2063 43.313Z" fill="#FF6F61"/>
<path d="M113.01 71.2206C111.236 71.2206 109.598 70.7908 108.093 69.9311C106.642 69.0176 105.46 67.8355 104.547 66.3848C103.687 64.8803 103.257 63.2415 103.257 61.4683V9.16052H109.866V61.4683C109.866 62.328 110.162 63.0803 110.753 63.7251C111.398 64.3161 112.15 64.6116 113.01 64.6116H120.908V71.2206H113.01Z" fill="#242B39"/>
<path d="M136.069 71.2206C134.296 71.2206 132.657 70.7908 131.153 69.9311C129.702 69.0176 128.52 67.8355 127.607 66.3848C126.747 64.8803 126.317 63.2415 126.317 61.4683V34.2264C126.317 32.4532 126.747 30.8413 127.607 29.3905C128.52 27.886 129.702 26.7039 131.153 25.8442C132.657 24.9308 134.296 24.4741 136.069 24.4741H164.117C165.944 24.4741 167.583 24.9308 169.034 25.8442C170.538 26.7039 171.72 27.886 172.58 29.3905C173.493 30.8413 173.95 32.4532 173.95 34.2264V51.1518H132.926V61.4683C132.926 62.328 133.222 63.0803 133.813 63.7251C134.457 64.3161 135.21 64.6116 136.069 64.6116H173.95V71.2206H136.069ZM132.926 44.5428H167.261V34.2264C167.261 33.3667 166.938 32.6413 166.293 32.0502C165.702 31.4054 164.977 31.0831 164.117 31.0831H136.069C135.21 31.0831 134.457 31.4054 133.813 32.0502C133.222 32.6413 132.926 33.3667 132.926 34.2264V44.5428Z" fill="#242B39"/>
<path d="M181.718 71.2206V69.0445L199.45 47.4444L181.718 26.6502V24.4741H192.518L205.736 40.0294L218.874 24.4741H229.674V26.6502L211.942 47.4444L229.755 69.0445V71.2206H218.954L205.736 55.0205L192.518 71.2206H181.718Z" fill="#242B39"/>
<path d="M238.168 89.7581V24.4741H274.92C276.854 24.4741 278.627 24.9845 280.239 26.0054C281.905 26.9726 283.222 28.2621 284.189 29.8741C285.156 31.486 285.639 33.2861 285.639 35.2741V60.4206C285.639 62.4086 285.156 64.2086 284.189 65.8206C283.222 67.4325 281.905 68.749 280.239 69.7699C278.627 70.737 276.854 71.2206 274.92 71.2206H247.759V89.7581H238.168ZM249.29 61.6295H274.598C274.974 61.6295 275.296 61.4952 275.565 61.2265C275.887 60.9041 276.048 60.528 276.048 60.0982V35.5965C276.048 35.1667 275.887 34.8174 275.565 34.5488C275.296 34.2264 274.974 34.0652 274.598 34.0652H249.29C248.914 34.0652 248.565 34.2264 248.242 34.5488C247.92 34.8174 247.759 35.1667 247.759 35.5965V60.0982C247.759 60.528 247.92 60.9041 248.242 61.2265C248.565 61.4952 248.914 61.6295 249.29 61.6295Z" fill="#242B39"/>
<path d="M302.248 71.2206C300.26 71.2206 298.46 70.737 296.848 69.7699C295.236 68.749 293.919 67.4325 292.898 65.8206C291.931 64.2086 291.448 62.4086 291.448 60.4206V35.2741C291.448 33.2861 291.931 31.486 292.898 29.8741C293.919 28.2621 295.236 26.9726 296.848 26.0054C298.46 24.9845 300.26 24.4741 302.248 24.4741H328.119C330.161 24.4741 331.988 24.9845 333.6 26.0054C335.212 26.9726 336.502 28.2621 337.469 29.8741C338.436 31.486 338.919 33.2861 338.919 35.2741V52.6832H301.039V60.0982C301.039 60.528 301.173 60.9041 301.442 61.2265C301.764 61.4952 302.14 61.6295 302.57 61.6295H338.919V71.2206H302.248ZM301.039 43.8981H329.328V35.5965C329.328 35.1667 329.167 34.8174 328.845 34.5488C328.576 34.2264 328.227 34.0652 327.797 34.0652H302.57C302.14 34.0652 301.764 34.2264 301.442 34.5488C301.173 34.8174 301.039 35.1667 301.039 35.5965V43.8981Z" fill="#242B39"/>
<path d="M346.86 71.2206V35.2741C346.86 33.2861 347.344 31.486 348.311 29.8741C349.332 28.2621 350.648 26.9726 352.26 26.0054C353.926 24.9845 355.726 24.4741 357.66 24.4741H383.693V34.0652H357.983C357.553 34.0652 357.177 34.2264 356.854 34.5488C356.586 34.8174 356.451 35.1667 356.451 35.5965V71.2206H346.86Z" fill="#242B39"/>
<path d="M399.535 71.2206C397.547 71.2206 395.72 70.737 394.055 69.7699C392.443 68.749 391.153 67.4325 390.186 65.8206C389.219 64.2086 388.735 62.4086 388.735 60.4206V9.8859H398.326V24.4741H417.025V34.0652H398.326V60.0982C398.326 60.528 398.461 60.9041 398.729 61.2265C399.052 61.4952 399.428 61.6295 399.858 61.6295H417.025V71.2206H399.535Z" fill="#242B39"/>
</svg>
